<svg width="120" height="120" viewBox="0 0 24 24" xmlns="http://www.w3.org/2000/svg" shape-rendering="crispEdges" fill="#CFF8FF">

  <!-- < -->
  <rect x="5" y="6" width="2" height="2"/>
  <rect x="3" y="8" width="2" height="2"/>
  <rect x="1" y="10" width="2" height="2"/>
  <rect x="3" y="12" width="2" height="2"/>
  <rect x="5" y="14" width="2" height="2"/>

  <!-- / -->
  <rect x="14" y="6" width="2" height="2"/>
  <rect x="13" y="8" width="2" height="2"/>
  <rect x="12" y="10" width="2" height="2"/>
  <rect x="11" y="12" width="2" height="2"/>
  <rect x="10" y="14" width="2" height="2"/>

  <!-- > -->
  <rect x="18" y="6" width="2" height="2"/>
  <rect x="20" y="8" width="2" height="2"/>
  <rect x="22" y="10" width="2" height="2"/>
  <rect x="20" y="12" width="2" height="2"/>
  <rect x="18" y="14" width="2" height="2"/>

</svg>